HIERARCHY
ROOT Hips
{
	OFFSET -3.958830 18.904000 13.208200
	CHANNELS 6 Xposition Yposition Zposition Zrotation Yrotation Xrotation 
	JOINT LHipJoint
	{
		OFFSET 0.000000 0.000000 0.000000
		CHANNELS 3 Zrotation Yrotation Xrotation
		JOINT LeftUpLeg
		{
			OFFSET 1.800000 -1.400000 0.085000
			CHANNELS 3 Zrotation Yrotation Xrotation
			JOINT LeftLeg
			{
				OFFSET 2.215000 -6.000000 0.000000
				CHANNELS 3 Zrotation Yrotation Xrotation
				JOINT LeftFoot
				{
					OFFSET 2.500000 -6.900000 0.000000
					CHANNELS 3 Zrotation Yrotation Xrotation
					JOINT LeftToeBase
					{
						OFFSET 0.200000 -0.500000 1.950000
						CHANNELS 3 Zrotation Yrotation Xrotation
						End Site
						{
							OFFSET 0.000000 0.000000 0.000000
						}
					}
				}
			}
		}
	}
	JOINT RHipJoint
	{
		OFFSET 0.000000 0.000000 0.000000
		CHANNELS 3 Zrotation Yrotation Xrotation
		JOINT RightUpLeg
		{
			OFFSET -1.800000 -1.400000 0.085000
			CHANNELS 3 Zrotation Yrotation Xrotation
			JOINT RightLeg
			{
				OFFSET -2.215000 -6.000000 0.000000
				CHANNELS 3 Zrotation Yrotation Xrotation
				JOINT RightFoot
				{
					OFFSET -2.500000 -6.900000 0.000000
					CHANNELS 3 Zrotation Yrotation Xrotation
					JOINT RightToeBase
					{
						OFFSET -0.200000 -0.500000 1.950000
						CHANNELS 3 Zrotation Yrotation Xrotation
						End Site
						{
							OFFSET 0.000000 0.000000 0.000000
						}
					}
				}
			}
		}
	}
	JOINT LowerBack
	{
		OFFSET 0.000000 0.000000 0.000000
		CHANNELS 3 Zrotation Yrotation Xrotation
		JOINT Spine
		{
			OFFSET -0.087000 1.940000 -0.288900
			CHANNELS 3 Zrotation Yrotation Xrotation
			JOINT Spine1
			{
				OFFSET 0.000000 1.950000 0.060000
				CHANNELS 3 Zrotation Yrotation Xrotation
				JOINT Neck
				{
					OFFSET 0.000000 0.000000 0.000000
					CHANNELS 3 Zrotation Yrotation Xrotation
					JOINT Neck1
					{
						OFFSET 0.000000 1.600000 0.340000
						CHANNELS 3 Zrotation Yrotation Xrotation
						JOINT Head
						{
							OFFSET 0.000000 1.667000 -0.240000
							CHANNELS 3 Zrotation Yrotation Xrotation
							End Site
							{
								OFFSET 0.000000 0.000000 0.000000
							}
						}
					}
				}
				JOINT LeftShoulder
				{
					OFFSET 0.000000 0.000000 0.000000
					CHANNELS 3 Zrotation Yrotation Xrotation
					JOINT LeftArm
					{
						OFFSET 2.700000 1.550000 -0.730000
						CHANNELS 3 Zrotation Yrotation Xrotation
						JOINT LeftForeArm
						{
							OFFSET 5.450000 0.000000 0.000000
							CHANNELS 3 Zrotation Yrotation Xrotation
							JOINT LeftHand
							{
								OFFSET 3.450000 0.000000 0.000000
								CHANNELS 3 Zrotation Yrotation Xrotation
								JOINT LeftHandIndex1
								{
									OFFSET 0.750000 0.000000 0.000000
									CHANNELS 3 Zrotation Yrotation Xrotation
									End Site
									{
										OFFSET 0.000000 0.000000 0.000000
									}
								}
							}
						}
					}
				}
				JOINT RightShoulder
				{
					OFFSET 0.000000 0.000000 0.000000
					CHANNELS 3 Zrotation Yrotation Xrotation
					JOINT RightArm
					{
						OFFSET -2.700000 1.550000 -0.730000
						CHANNELS 3 Zrotation Yrotation Xrotation
						JOINT RightForeArm
						{
							OFFSET -5.450000 0.000000 0.000000
							CHANNELS 3 Zrotation Yrotation Xrotation
							JOINT RightHand
							{
								OFFSET -3.450000 0.000000 0.000000
								CHANNELS 3 Zrotation Yrotation Xrotation
								JOINT RightHandIndex1
								{
									OFFSET -0.750000 0.000000 0.000000
									CHANNELS 3 Zrotation Yrotation Xrotation
									End Site
									{
										OFFSET 0.000000 0.000000 0.000000
									}
								}
							}
						}
					}
				}
			}
		}
	}
}
MOTION
Frames: 6
Frame Time: 0.016667
5.292970 15.928310 -7.430150 -7.824326 -17.014469 -5.385111 -15.189749 12.249879 4.838771 32.793178 -7.343084 -14.253277 -27.276140 18.661492 32.083457 0.780737 10.546000 0.750121 0.178530 -0.087490 0.307530 18.308340 -9.549652 2.320873 -29.231360 -5.238217 -18.817653 0.091997 -4.363121 4.129297 -0.398471 -3.292614 3.115496 -0.119460 0.062160 -0.050380 -3.677523 -3.162595 -8.927806 -1.551451 -10.665130 36.626384 -7.989803 -10.199776 -4.553097 4.422496 -7.328143 -25.013687 -30.102693 25.012629 39.033472 5.261660 16.289060 -10.599300 -13.958328 -21.663727 9.942309 -2.909065 -3.705281 1.072427 4.643508 7.962502 -0.568666 -3.953884 2.115565 0.796100 -0.218150 0.167080 0.017560 8.143599 23.619944 15.233869 -3.393032 -4.388723 -1.278475 0.455951 -6.113073 0.062057 2.989231 -0.336878 -0.310140 0.328880 0.062870 -0.257630 
5.213150 15.977000 -7.427880 -7.916250 -17.122319 -5.237482 -15.176729 12.405789 4.780250 32.905574 -6.914127 -13.506402 -26.151815 17.811861 30.815644 0.715977 10.241987 0.823816 0.201570 -0.057090 0.313960 18.289569 -9.627380 2.270680 -28.053445 -4.918616 -18.745610 0.688668 -4.322234 4.530742 -0.384551 -3.188551 3.153126 -0.110190 0.030310 -0.038080 -3.647613 -3.247012 -8.870978 -1.536496 -10.674765 35.974895 -8.289548 -10.081873 -3.712581 4.617453 -7.135543 -25.249043 -29.884024 25.168767 39.260842 4.950850 16.752010 -10.127460 -14.375289 -21.950720 9.989042 -3.737500 -4.031711 0.941144 6.340985 6.901927 -0.420669 -3.934260 2.216958 0.782860 -0.221890 0.174800 0.019500 8.108402 23.808131 15.390168 -2.589812 -4.395353 -1.206645 -0.716566 -5.642232 0.192255 2.983553 -0.391568 -0.282690 0.283910 0.045650 -0.260040 
5.064260 16.065410 -7.438870 -7.456729 -17.617198 -6.018350 -15.162240 12.673694 4.615799 32.739579 -6.167178 -11.111016 -24.441044 16.361167 28.242448 0.627975 9.745994 0.977905 0.246360 -0.006120 0.349240 18.244112 -9.751121 2.234292 -26.592639 -4.577058 -18.047509 1.795597 -4.349971 4.990669 -0.389985 -3.111764 3.188466 -0.094850 -0.009880 -0.010230 -3.554299 -3.379269 -8.772896 -2.908805 -9.796700 36.043235 -7.814261 -9.620413 -1.844906 4.653378 -7.105550 -25.327883 -30.076923 24.961078 39.180694 3.264930 17.237130 -10.954190 -14.038858 -22.378776 9.755127 -4.060382 -5.939846 1.253595 5.581882 6.618212 -0.427787 -3.903086 2.261165 0.773100 -0.224960 0.201290 0.027450 7.727436 24.159647 15.789542 -1.890876 -4.967224 -0.978726 -1.218190 -4.105885 0.237909 2.933455 -0.448310 -0.243090 0.245430 0.013860 -0.261740 
4.869770 16.168890 -7.450760 -6.442793 -19.355073 -6.405141 -15.133509 12.865225 4.436520 32.292523 -5.058080 -7.830966 -23.170289 14.802855 24.074115 0.554912 9.166201 1.202013 0.272120 0.022300 0.388780 18.209273 -9.829401 2.334338 -24.847051 -3.924086 -18.271419 3.283700 -4.241922 4.681730 -0.393883 -2.956665 3.258516 -0.089040 -0.041860 -0.013980 -3.493187 -3.335251 -8.713092 -4.923464 -8.321678 35.345818 -7.387662 -8.721968 -0.939137 4.698090 -7.067866 -25.580501 -30.544640 24.942909 40.010339 2.027180 17.693220 -12.149170 -13.157759 -22.576022 9.557025 -4.946190 -7.543052 1.588732 5.017410 6.245136 -0.393737 -3.853491 2.253040 0.794320 -0.245180 0.236130 0.036620 6.932929 24.686115 16.191515 0.276846 -4.706077 -0.960476 -2.479519 -3.369209 0.408011 2.911950 -0.477637 -0.237020 0.253380 -0.017600 -0.269480 
4.678490 16.287360 -7.437610 -6.255661 -19.997945 -6.078843 -15.082910 13.020582 4.340889 32.326210 -4.153868 -5.579554 -21.196407 13.123510 19.953409 0.461382 8.570496 1.434078 0.274100 0.027950 0.425060 18.203181 -9.956061 2.356331 -22.686226 -3.254661 -17.495613 5.080703 -4.317416 5.043379 -0.396681 -2.853390 3.321388 -0.088290 -0.058470 -0.035380 -3.514004 -3.253949 -8.650769 -4.856684 -8.160111 34.130877 -7.944521 -8.402921 -1.165388 4.963309 -6.591645 -25.902731 -30.291226 25.470702 42.231688 1.514840 18.716670 -12.235670 -13.776498 -22.944086 9.395531 -5.461048 -8.725705 1.813157 4.804932 6.653838 -0.338599 -3.848958 2.190811 0.817190 -0.256010 0.261690 0.036290 6.979109 24.901621 16.312919 1.266319 -4.646704 -0.887860 -2.791551 -2.260708 0.476689 2.883291 -0.462552 -0.254750 0.277200 -0.040260 -0.283970 
4.471730 16.394250 -7.400430 -5.748366 -19.811690 -5.139922 -15.056492 13.095435 4.303572 32.298389 -3.516336 -4.330666 -19.229877 11.539949 15.756115 0.316760 8.072685 1.632930 0.222050 -0.029650 0.381520 18.200710 -9.992326 2.390002 -21.095899 -2.775064 -16.775293 5.193226 -4.130701 4.253034 -0.356176 -2.792385 3.379611 -0.087270 0.004630 -0.053590 -3.527430 -3.251680 -8.660655 -4.768064 -7.983254 31.492263 -8.776337 -7.843982 -0.612800 4.610599 -6.426339 -25.549207 -29.466124 25.000372 42.880511 2.384450 18.229910 -11.080020 -14.834845 -23.332056 8.800225 -5.250684 -10.533967 2.064358 4.427247 7.046310 -0.383158 -3.931736 2.120483 0.813240 -0.210710 0.208470 0.020420 8.613920 24.868052 16.429067 1.536218 -5.879554 -0.870014 -3.895034 -1.112804 0.509018 2.794941 -0.496192 -0.310620 0.319330 0.011810 -0.295430 
